<svg width="42" height="42" viewBox="0 0 42 42" fill="none" xmlns="http://www.w3.org/2000/svg">
<path d="M31.92 12.936C32.4767 12.936 32.928 12.4847 32.928 11.928C32.928 11.3713 32.4767 10.92 31.92 10.92C31.3633 10.92 30.912 11.3713 30.912 11.928C30.912 12.4847 31.3633 12.936 31.92 12.936Z" fill="black"/>
<path d="M10.92 30.66H32.76V13.86H10.92V30.66ZM23.94 23.3033L27.7704 21.7997L23.94 20.3175V18.7866L29.4 21.1508V22.4591L23.94 24.8459V23.3033ZM20.5296 24.78L22.05 18.4976C22.1294 18.1637 22.2058 17.9348 22.2785 17.8113C22.3516 17.6879 22.4931 17.6261 22.7039 17.6261C22.8862 17.6261 23.0248 17.6698 23.1206 17.7572C23.2163 17.8445 23.2651 17.9646 23.2651 18.1167C23.2651 18.2292 23.2264 18.4342 23.1512 18.7324L21.6245 25.0148C21.5746 25.2218 21.53 25.3856 21.4922 25.5053C21.4544 25.625 21.3961 25.7195 21.3179 25.7859C21.2398 25.8531 21.126 25.8863 20.9773 25.8863C20.6069 25.8863 20.4212 25.7258 20.4212 25.407C20.4204 25.323 20.4574 25.1143 20.5296 24.78ZM14.28 21.1403L19.74 18.7647V20.3175L15.9205 21.7892L19.74 23.2928V24.8346L14.28 22.4595V21.1403Z" fill="black"/>
<path d="M21 0C9.40212 0 0 9.40212 0 21C0 32.5979 9.40212 42 21 42C32.5975 42 42 32.5979 42 21C42 9.40212 32.5975 0 21 0ZM34.44 30.8272C34.44 31.6634 33.7634 32.34 32.928 32.34H10.752C9.91704 32.34 9.24 31.6634 9.24 30.8272V11.5924C9.24 10.757 9.91704 10.08 10.752 10.08H32.928C33.763 10.08 34.44 10.757 34.44 11.5924V30.8272Z" fill="black"/>
<path d="M26.376 12.936C26.9327 12.936 27.384 12.4847 27.384 11.928C27.384 11.3713 26.9327 10.92 26.376 10.92C25.8193 10.92 25.368 11.3713 25.368 11.928C25.368 12.4847 25.8193 12.936 26.376 12.936Z" fill="black"/>
<path d="M29.148 12.936C29.7032 12.936 30.1552 12.4841 30.1552 11.928C30.1552 11.372 29.7032 10.92 29.148 10.92C28.5923 10.92 28.14 11.372 28.14 11.928C28.14 12.4841 28.5923 12.936 29.148 12.936Z" fill="black"/>
</svg>
