<svg width="42" height="42" viewBox="0 0 42 42" fill="none" xmlns="http://www.w3.org/2000/svg">
<path d="M0 21C0 9.40205 9.40205 0 21 0C32.5979 0 42 9.40205 42 21C42 32.5979 32.5979 42 21 42C9.40205 42 0 32.5979 0 21Z" fill="#333333"/>
<path d="M16.8 33.5999C19.1196 33.5999 21 31.7195 21 29.3999V25.1999H16.8C14.4804 25.1999 12.6 27.0804 12.6 29.3999C12.6 31.7195 14.4804 33.5999 16.8 33.5999Z" fill="#0ACF83"/>
<path d="M12.6 21C12.6 18.6804 14.4804 16.8 16.8 16.8H21V25.2H16.8C14.4804 25.2 12.6 23.3195 12.6 21Z" fill="#A259FF"/>
<path d="M12.6 12.6C12.6 10.2804 14.4804 8.39996 16.8 8.39996H21V16.8H16.8C14.4804 16.8 12.6 14.9195 12.6 12.6Z" fill="#F24E1E"/>
<path d="M21 8.39996H25.2C27.5196 8.39996 29.4 10.2804 29.4 12.6C29.4 14.9195 27.5196 16.8 25.2 16.8H21V8.39996Z" fill="#FF7262"/>
<path d="M29.4 21C29.4 23.3195 27.5196 25.2 25.2 25.2C22.8804 25.2 21 23.3195 21 21C21 18.6804 22.8804 16.8 25.2 16.8C27.5196 16.8 29.4 18.6804 29.4 21Z" fill="#1ABCFE"/>
</svg>
