<svg width="40" height="40" viewBox="0 0 40 40" fill="none" xmlns="http://www.w3.org/2000/svg">
<path d="M24.5904 11.5254H15.4096C14.8995 11.5254 14.3944 11.6258 13.9232 11.821C13.4519 12.0162 13.0237 12.3023 12.663 12.663C12.3023 13.0237 12.0162 13.4519 11.821 13.9232C11.6258 14.3944 11.5254 14.8995 11.5254 15.4096V24.5904C11.5254 25.6206 11.9346 26.6085 12.6631 27.337C13.0237 27.6976 13.4519 27.9837 13.9232 28.1789C14.3944 28.3741 14.8995 28.4746 15.4096 28.4746H24.5904C25.6205 28.4746 26.6085 28.0654 27.3369 27.3369C28.0653 26.6085 28.4745 25.6205 28.4745 24.5904V15.4096C28.4745 14.8995 28.3741 14.3944 28.1789 13.9232C27.9837 13.4519 27.6976 13.0237 27.3369 12.6631C26.9762 12.3024 26.5481 12.0163 26.0768 11.8211C25.6056 11.6259 25.1005 11.5254 24.5904 11.5254ZM20 25.343C18.9432 25.343 17.9102 25.0297 17.0316 24.4426C16.1529 23.8555 15.4681 23.021 15.0637 22.0447C14.6593 21.0684 14.5535 19.9941 14.7596 18.9576C14.9658 17.9212 15.4747 16.9691 16.2219 16.2219C16.9691 15.4747 17.9212 14.9658 18.9576 14.7596C19.9941 14.5535 21.0684 14.6593 22.0447 15.0637C23.021 15.4681 23.8555 16.1529 24.4426 17.0316C25.0297 17.9102 25.343 18.9432 25.343 20C25.343 20.7017 25.2048 21.3964 24.9363 22.0447C24.6678 22.6929 24.2743 23.282 23.7781 23.7781C23.282 24.2743 22.6929 24.6678 22.0447 24.9363C21.3964 25.2048 20.7017 25.343 20 25.343ZM25.5658 15.7484C25.3144 15.7485 25.0686 15.6739 24.8595 15.5342C24.6505 15.3946 24.4875 15.1961 24.3913 14.9638C24.2951 14.7315 24.2699 14.4759 24.319 14.2293C24.368 13.9827 24.4891 13.7562 24.6668 13.5784C24.8446 13.4007 25.0711 13.2796 25.3177 13.2305C25.5643 13.1815 25.8199 13.2066 26.0521 13.3028C26.2844 13.3991 26.483 13.562 26.6226 13.771C26.7623 13.9801 26.8369 14.2258 26.8369 14.4773C26.8369 14.8144 26.703 15.1377 26.4646 15.3761C26.2262 15.6145 25.9029 15.7484 25.5658 15.7484Z" fill="black"/>
<path d="M20 16.5269C19.3131 16.5269 18.6416 16.7306 18.0705 17.1123C17.4993 17.4939 17.0542 18.0363 16.7913 18.6709C16.5285 19.3055 16.4597 20.0038 16.5937 20.6776C16.7277 21.3513 17.0585 21.9701 17.5442 22.4558C18.0299 22.9415 18.6487 23.2723 19.3224 23.4063C19.9961 23.5403 20.6945 23.4715 21.3291 23.2087C21.9637 22.9458 22.5061 22.5007 22.8877 21.9295C23.2694 21.3584 23.473 20.6869 23.473 20C23.473 19.0789 23.1071 18.1955 22.4558 17.5442C21.8045 16.8929 20.9211 16.5269 20 16.5269Z" fill="black"/>
<path d="M20 0C8.9543 0 0 8.9543 0 20C0 31.0457 8.9543 40 20 40C31.0457 40 40 31.0457 40 20C40 8.9543 31.0457 0 20 0ZM30.4166 24.4141C30.4166 26.006 29.7841 27.5328 28.6585 28.6585C27.5328 29.7841 26.006 30.4166 24.4141 30.4166H15.5859C13.994 30.4166 12.4672 29.7841 11.3415 28.6585C10.2158 27.5328 9.58336 26.006 9.58328 24.4141V15.5859C9.58334 13.994 10.2158 12.4672 11.3415 11.3415C12.4672 10.2158 13.994 9.5834 15.5859 9.58336H24.4141C26.006 9.58342 27.5328 10.2159 28.6585 11.3415C29.7841 12.4672 30.4166 13.994 30.4166 15.5859V24.4141Z" fill="black"/>
</svg>
