<svg id="Слой_1" data-name="Слой 1" xmlns="http://www.w3.org/2000/svg" viewBox="0 0 84.68 45.78"><defs><style>.cls-1{fill:#ece8dd;}</style></defs><path class="cls-1" d="M239.69,375V349H247v3.36a9.4,9.4,0,0,1,8-4.2q5.1,0,7.68,3.18,2,2.52,2,7.32V375h-7.32V360.86q0-3.66-1.38-5.1a4.5,4.5,0,0,0-3.42-1.32,5,5,0,0,0-4.5,2.28,9.41,9.41,0,0,0-1.14,5V375Z" transform="translate(-209.89 -329.66)"/><path class="cls-1" d="M287.25,352v-3.36h7.32v26h-7.32v-3.36a9.25,9.25,0,0,1-8,4.2,12.39,12.39,0,0,1-9.57-4,15.1,15.1,0,0,1-.09-19.68,12,12,0,0,1,9.3-4Q284.55,347.78,287.25,352Zm-1.32,4.38a7.39,7.39,0,0,0-10.32,0,7.2,7.2,0,0,0-2,5.22,7.3,7.3,0,0,0,2,5.25,7.32,7.32,0,0,0,10.32,0,7.3,7.3,0,0,0,2-5.25A7.2,7.2,0,0,0,285.93,356.36Z" transform="translate(-209.89 -329.66)"/><path d="M217.21,329.66V352a9.79,9.79,0,0,1,8.46-4.2,11.89,11.89,0,0,1,9.24,3.9,15.5,15.5,0,0,1-.09,19.83,12.13,12.13,0,0,1-9.33,3.93,9.72,9.72,0,0,1-8.28-4.2v3.36h-7.32V329.66Zm11.64,26.7a7.39,7.39,0,0,0-10.32,0,7.2,7.2,0,0,0-2,5.22,7.3,7.3,0,0,0,2,5.25,7.32,7.32,0,0,0,10.32,0,7.3,7.3,0,0,0,2-5.25A7.2,7.2,0,0,0,228.85,356.36Z" transform="translate(-209.89 -329.66)"/><path d="M257.45,361.46a9.41,9.41,0,0,1-1.14,5,5,5,0,0,1-4.5,2.28,4.5,4.5,0,0,1-3.42-1.32Q247,366,247,362.36V348.2h-7.32v16.32q0,4.8,2,7.32,2.58,3.18,7.68,3.18a9.4,9.4,0,0,0,8-4.2Z" transform="translate(-209.89 -329.66)"/></svg>