<svg width="40" height="40" viewBox="0 0 40 40" fill="none" xmlns="http://www.w3.org/2000/svg">
<path d="M20.5469 9.99063C18.8378 9.99073 17.161 10.4563 15.6966 11.3374C14.2321 12.2184 13.0353 13.4817 12.2346 14.9916C11.4339 16.5015 11.0595 18.2009 11.1517 19.9075C11.2439 21.614 11.7991 23.2633 12.7578 24.6781L11.8383 28.2254L15.5353 27.3628C16.7695 28.1394 18.1674 28.6185 19.6186 28.7623C21.0697 28.9061 22.5345 28.7105 23.8971 28.1912C25.2597 27.6718 26.483 26.8428 27.4703 25.7696C28.4577 24.6964 29.182 23.4084 29.5862 22.0073C29.9904 20.6062 30.0634 19.1303 29.7994 17.6961C29.5354 16.2619 28.9417 14.9087 28.065 13.7434C27.1884 12.578 26.0529 11.6324 24.7481 10.9811C23.4434 10.3298 22.0051 9.99075 20.5469 9.99063ZM25.1734 24.5364C23.8574 25.1536 21.1098 24.8316 18.2152 22.3544C15.3206 19.8772 14.5781 17.2122 14.9843 15.8167C15.3906 14.4213 16.9867 14.1634 17.2878 14.2301C17.5889 14.2967 19.0945 16.6837 18.8893 16.9621C18.6842 17.2406 17.6932 18.2316 17.6932 18.2316C17.6932 18.2316 17.6515 19.2457 19.5122 20.8382C21.373 22.4307 22.3685 22.2328 22.3685 22.2328C22.3685 22.2328 23.1946 21.1 23.4379 20.8548C23.6813 20.6095 26.2723 21.7283 26.3847 22.0155C26.497 22.3027 26.489 23.9195 25.173 24.5364H25.1734Z" fill="black"/>
<path d="M20 0C8.9543 0 0 8.9543 0 20C0 31.0457 8.9543 40 20 40C31.0457 40 40 31.0457 40 20C40 8.9543 31.0457 0 20 0ZM20.5469 30.7774C18.6695 30.7802 16.8208 30.3162 15.1672 29.4273L9.11719 30.9375L10.6496 25.0156C9.41477 22.8403 8.93109 20.3187 9.2734 17.8408C9.6157 15.363 10.7649 13.067 12.5433 11.3079C14.3216 9.54879 16.63 8.42469 19.1115 8.10942C21.5929 7.79415 24.1091 8.30528 26.2708 9.56377C28.4326 10.8222 30.1194 12.758 31.0705 15.0715C32.0216 17.385 32.1838 19.9475 31.5322 22.3625C30.8806 24.7775 29.4513 26.9105 27.4656 28.4316C25.4799 29.9527 23.0483 30.7772 20.5469 30.7774Z" fill="black"/>
</svg>
