<svg width="42" height="42" viewBox="0 0 42 42" fill="none" xmlns="http://www.w3.org/2000/svg">
<path fill-rule="evenodd" clip-rule="evenodd" d="M21.3685 22.8359L15.0668 41.1442C16.949 41.6981 18.9387 42 20.9997 42C23.4449 42 25.7903 41.5774 27.9733 40.8096C27.9182 40.719 27.8657 40.6245 27.8237 40.5208L21.3685 22.8359ZM39.4275 10.9246C39.5181 11.594 39.5693 12.3106 39.5693 13.0837C39.5693 15.2138 39.1702 17.6092 37.9719 20.6056L31.5574 39.1502C37.8013 35.5107 42 28.7457 42 20.9993C42 17.348 41.0668 13.9158 39.4275 10.9246ZM35.1763 19.9398C35.1763 17.3437 34.2431 15.5469 33.4451 14.1491C32.3807 12.4179 31.3819 10.9531 31.3819 9.22327C31.3819 7.29258 32.8453 5.49577 34.9086 5.49577C35.0018 5.49577 35.0897 5.50758 35.1803 5.51283C31.4449 2.0895 26.4662 0 20.9997 0C13.6625 0 7.20858 3.76425 3.45352 9.46444C3.94702 9.48019 4.41164 9.48938 4.80539 9.48938C7.0012 9.48938 10.4022 9.22294 10.4022 9.22294C11.5336 9.156 11.6675 10.8203 10.5361 10.9528C10.5361 10.9528 9.39816 11.0867 8.13291 11.1536L15.7799 33.8996L20.3762 20.1167L17.1052 11.1536C15.9738 11.0867 14.9015 10.9528 14.9015 10.9528C13.7701 10.8859 13.9027 9.156 15.0353 9.22294C15.0353 9.22294 18.503 9.48938 20.5665 9.48938C22.7624 9.48938 26.1634 9.22294 26.1634 9.22294C27.2961 9.156 27.4286 10.8203 26.2972 10.9528C26.2972 10.9528 25.158 11.0867 23.8941 11.1536L31.4833 33.7263L33.5793 26.7281C34.4846 23.8222 35.1763 21.7366 35.1763 19.9398ZM0 20.999C0 29.3111 4.83 36.4947 11.8351 39.898L1.81781 12.453C0.653625 15.0639 0 17.954 0 20.999Z" fill="#00759D"/>
</svg>
